<svg width="18" height="18" viewBox="0 0 18 18" fill="none" xmlns="http://www.w3.org/2000/svg">
<g clip-path="url(#clip0_417_757)">
<path d="M7.44668 7.62015C7.20785 7.6398 6.98515 7.74855 6.82279 7.92481C6.66044 8.10107 6.57031 8.33194 6.57031 8.57158C6.57031 8.81122 6.66044 9.04209 6.82279 9.21835C6.98515 9.39461 7.20785 9.50336 7.44668 9.52301C7.56687 9.51861 7.685 9.49044 7.79424 9.44014C7.90348 9.38984 8.00168 9.31839 8.08317 9.22994C8.16465 9.14148 8.22781 9.03776 8.26899 8.92476C8.31017 8.81176 8.32857 8.69173 8.32311 8.57158C8.329 8.45134 8.31091 8.33112 8.26989 8.21793C8.22887 8.10475 8.16573 8.00085 8.08417 7.91231C8.0026 7.82376 7.90423 7.75233 7.79478 7.70217C7.68534 7.65201 7.56701 7.62413 7.44668 7.62015ZM10.5753 7.62015C10.3838 7.60441 10.192 7.64682 10.025 7.74184C9.85794 7.83686 9.7235 7.98007 9.63919 8.15273C9.55489 8.32539 9.52465 8.51948 9.55243 8.70961C9.58021 8.89974 9.66471 9.07706 9.7949 9.21838C9.92508 9.3597 10.0949 9.45845 10.2821 9.50172C10.4693 9.54498 10.6652 9.53074 10.8442 9.46087C11.0232 9.39099 11.1769 9.26873 11.2853 9.11006C11.3937 8.9514 11.4517 8.76373 11.4517 8.57158C11.4571 8.45161 11.4388 8.33174 11.3978 8.21888C11.3567 8.10602 11.2938 8.00239 11.2125 7.91396C11.1312 7.82553 11.0333 7.75405 10.9243 7.70363C10.8153 7.6532 10.6974 7.62483 10.5774 7.62015H10.5753Z" fill="#808080"/>
<path d="M14.7429 0.428467H3.25715C3.02566 0.429029 2.79655 0.475217 2.58291 0.564391C2.36928 0.653564 2.17532 0.783975 2.01213 0.948164C1.84894 1.11235 1.71971 1.3071 1.63183 1.52127C1.54396 1.73544 1.49917 1.96483 1.50001 2.19632V13.7828C1.49917 14.0142 1.54396 14.2436 1.63183 14.4578C1.71971 14.672 1.84894 14.8667 2.01213 15.0309C2.17532 15.1951 2.36928 15.3255 2.58291 15.4147C2.79655 15.5039 3.02566 15.55 3.25715 15.5506H12.9772L12.5229 13.9649L13.62 14.9828L14.6572 15.9428L16.5 17.5713V2.19632C16.5009 1.96483 16.4561 1.73544 16.3682 1.52127C16.2803 1.3071 16.1511 1.11235 15.9879 0.948164C15.8247 0.783975 15.6307 0.653564 15.4171 0.564391C15.2035 0.475217 14.9744 0.429029 14.7429 0.428467V0.428467ZM11.4343 11.6249C11.4343 11.6249 11.1257 11.2563 10.8686 10.9285C11.4903 10.7832 12.0407 10.4226 12.4222 9.91061C12.1137 10.1159 11.7831 10.2855 11.4364 10.4163C11.0377 10.5865 10.6207 10.7102 10.1936 10.7849C9.45948 10.9201 8.70662 10.9171 7.97358 10.7763C7.54323 10.6921 7.12147 10.5687 6.71358 10.4078C6.36915 10.2742 6.04011 10.1039 5.73215 9.8999C6.09897 10.4016 6.62954 10.7593 7.23215 10.9113C6.97501 11.237 6.65787 11.6228 6.65787 11.6228C6.1487 11.6365 5.64396 11.5249 5.18808 11.2977C4.73221 11.0705 4.33917 10.7347 4.04358 10.3199C4.07074 8.58239 4.49204 6.87372 5.27573 5.32275C5.96662 4.78018 6.80902 4.46569 7.68644 4.42275L7.77215 4.52561C6.94736 4.72973 6.17767 5.1131 5.51787 5.64847C5.51787 5.64847 5.70644 5.54561 6.02358 5.3999C6.64038 5.11843 7.29777 4.93619 7.97144 4.8599C8.01942 4.84996 8.06818 4.84423 8.11715 4.84275C8.69154 4.76792 9.27283 4.76216 9.84858 4.82561C10.754 4.92902 11.6305 5.20856 12.4286 5.64847C11.8022 5.13861 11.0748 4.76757 10.2943 4.5599L10.4143 4.42275C11.2917 4.46569 12.1341 4.78018 12.825 5.32275C13.6087 6.87372 14.03 8.58239 14.0572 10.3199C13.7594 10.7347 13.3648 11.0704 12.9076 11.2978C12.4505 11.5252 11.9447 11.6375 11.4343 11.6249Z" fill="#808080"/>
</g>
<defs>
<clipPath id="clip0_417_757">
<rect width="17.1429" height="17.1429" fill="white" transform="translate(0.428711 0.428467)"/>
</clipPath>
</defs>
</svg>
