<svg width="18" height="18" viewBox="0 0 18 18" fill="none" xmlns="http://www.w3.org/2000/svg">
<path d="M8.99993 11.7142C10.499 11.7142 11.7142 10.499 11.7142 8.99993C11.7142 7.50087 10.499 6.28564 8.99993 6.28564C7.50087 6.28564 6.28564 7.50087 6.28564 8.99993C6.28564 10.499 7.50087 11.7142 8.99993 11.7142Z" fill="#808080"/>
<path d="M12.392 0.857178H5.60625C2.98765 0.857178 0.856934 2.98857 0.856934 5.60786V12.3936C0.856934 15.0122 2.98833 17.1429 5.60761 17.1429H12.3933C15.0119 17.1429 17.1426 15.0115 17.1426 12.3922V5.6065C17.1426 2.98789 15.0113 0.857178 12.392 0.857178ZM8.99979 13.0715C6.7544 13.0715 4.92836 11.2454 4.92836 9.00003C4.92836 6.75464 6.7544 4.92861 8.99979 4.92861C11.2452 4.92861 13.0712 6.75464 13.0712 9.00003C13.0712 11.2454 11.2452 13.0715 8.99979 13.0715ZM13.7498 4.92861C13.3752 4.92861 13.0712 4.62461 13.0712 4.25003C13.0712 3.87546 13.3752 3.57146 13.7498 3.57146C14.1244 3.57146 14.4284 3.87546 14.4284 4.25003C14.4284 4.62461 14.1244 4.92861 13.7498 4.92861Z" fill="#808080"/>
</svg>
