<svg width="18" height="18" viewBox="0 0 18 18" fill="none" xmlns="http://www.w3.org/2000/svg">
<g clip-path="url(#clip0_417_776)">
<path d="M17.5367 2.23341C17.5229 2.17014 17.4926 2.11167 17.4488 2.06395C17.4051 2.01623 17.3494 1.98098 17.2876 1.9618C17.0625 1.9174 16.8296 1.93405 16.6131 2.01001C16.6131 2.01001 1.59328 7.40841 0.735602 8.00626C0.550245 8.13484 0.488638 8.2093 0.458102 8.29769C0.309709 8.72305 0.771495 8.91055 0.771495 8.91055L4.64257 10.1722C4.70796 10.1835 4.77507 10.1794 4.83864 10.1604C5.71935 9.6043 13.6988 4.56537 14.1601 4.39609C14.2324 4.37412 14.286 4.39609 14.2742 4.44966C14.0856 5.09573 7.19471 11.2195 7.15667 11.257C7.13819 11.2721 7.12365 11.2916 7.11432 11.3136C7.10499 11.3356 7.10114 11.3596 7.1031 11.3834L6.7431 15.1607C6.7431 15.1607 6.59203 16.3393 7.76846 15.1607C8.60257 14.3255 9.40292 13.6345 9.80417 13.2986C11.1354 14.2173 12.5679 15.2336 13.1856 15.7629C13.2892 15.8635 13.4121 15.9423 13.5469 15.9944C13.6816 16.0465 13.8255 16.0709 13.9699 16.0661C14.5592 16.0436 14.7199 15.3991 14.7199 15.3991C14.7199 15.3991 17.4563 4.38751 17.5485 2.91162C17.557 2.76698 17.5694 2.6743 17.5704 2.57519C17.5753 2.46024 17.5639 2.34518 17.5367 2.23341Z" fill="#808080"/>
</g>
<defs>
<clipPath id="clip0_417_776">
<rect width="17.1429" height="17.1429" fill="white" transform="translate(0.428711 0.428467)"/>
</clipPath>
</defs>
</svg>
