<svg width="18" height="18" viewBox="0 0 18 18" fill="none" xmlns="http://www.w3.org/2000/svg">
<g clip-path="url(#clip0_417_762)">
<path d="M17.5714 3.6966C16.9286 3.96446 16.2857 4.17875 15.5357 4.23232C16.2857 3.80375 16.8214 3.10732 17.0893 2.30375C16.3929 2.73232 15.6429 3.00017 14.8393 3.16089C14.1964 2.46446 13.2857 2.03589 12.3214 2.03589C10.3929 2.03589 8.78572 3.58946 8.78572 5.5716C8.78572 5.83946 8.83929 6.10732 8.89286 6.37517C5.94643 6.21446 3.375 4.8216 1.60714 2.67875C1.28571 3.21446 1.125 3.80375 1.125 4.4466C1.125 5.67875 1.76786 6.75017 2.67857 7.39303C2.08929 7.39303 1.55357 7.23232 1.07143 6.96446V7.01803C1.07143 8.73232 2.30357 10.1252 3.91071 10.4466C3.58929 10.5002 3.32143 10.5537 3 10.5537C2.78571 10.5537 2.57143 10.5537 2.35714 10.5002C2.78571 11.893 4.125 12.9109 5.625 12.9645C4.44643 13.9287 2.89286 14.4645 1.23214 14.4645C0.964286 14.4645 0.642857 14.4645 0.375 14.4109C1.98214 15.3752 3.85714 15.9645 5.83929 15.9645C12.3214 15.9645 15.8571 10.6073 15.8571 5.9466C15.8571 5.78589 15.8571 5.62517 15.8571 5.51803C16.5 4.98232 17.0893 4.39303 17.5714 3.6966Z" fill="#808080"/>
</g>
<defs>
<clipPath id="clip0_417_762">
<rect width="17.1429" height="17.1429" fill="white" transform="translate(0.428711 0.428467)"/>
</clipPath>
</defs>
</svg>
