<svg viewBox="0 0 400 300" fill="none" xmlns="http://www.w3.org/2000/svg"><mask id="a" style="mask-type:alpha" maskUnits="userSpaceOnUse" x="34" y="54" width="329" height="230"><path d="M230.854 75.526c67.7 34.713 87.033 11.898 117.482 58.149 30.448 46.252 9.702 132.687-54.278 146.858-63.981 14.172-75.451-20.722-162.281-5.585C44.947 290.085.904 158.01 65.83 102.938c64.927-55.073 97.325-62.125 165.024-27.412Z" fill="#fff"/></mask><g mask="url(#a)"><path d="M230.854 75.526c67.7 34.713 87.033 11.898 117.482 58.149 30.448 46.252 9.702 132.687-54.278 146.858-63.981 14.172-75.451-20.722-162.281-5.585C44.947 290.085.904 158.01 65.83 102.938c64.927-55.073 97.325-62.125 165.024-27.412Z" fill="#F2F5FF"/><mask id="b" style="mask-type:alpha" maskUnits="userSpaceOnUse" x="26" y="16" width="371" height="371"><path d="M396.551 16.477H26.071v370.48h370.48V16.477Z" fill="#fff"/></mask><g mask="url(#b)" stroke="#fff" stroke-width="1.32"><path d="M173.973 16.477c5.238 68.023 29.61 109.201 73.117 123.535 43.507 14.334 102.623-6.255 177.349-61.768"/><path d="M199.718 16.477c11.595 79.97-14.447 121.288-78.127 123.952-95.52 3.995-26.51-68.545 6.077-39.628s29.934 91.53-20.911 134.445C72.86 263.856 34.24 278.161-9.105 278.161M396.551 236.158c-141.162-9.122-253.133 41.145-335.915 150.799"/><path d="M26.071 235.107c92.595 24.82 152.29 75.437 179.085 151.85"/><path d="M396.551 147.319c-62.477 62.366-106.089 80.498-130.837 54.398-37.121-39.151 33.785-69.981 44.243-34.991 10.459 34.991-45.456 62.76-119.9 75.111-49.629 8.234-108.355 44.254-176.18 108.061M91.207 16.477c59.198 28.751 135.601 41.742 229.209 38.973 93.608-2.77 159.796-14.012 198.564-33.726"/><path d="M304.781 83.775c25.154 0 45.545-28.609 45.545-63.9 0-35.29-20.391-63.899-45.545-63.899-25.154 0-45.545 28.609-45.545 63.9 0 35.29 20.391 63.899 45.545 63.899ZM396.551 187.842C337.41 245.5 312.032 315.403 320.416 397.55"/><path d="M26.071 157.764C172.142 187.277 286.765 267.206 369.94 397.55"/><path d="M79.729 16.477C35.082 25.61 18.575 44.662 30.207 73.629c17.449 43.451 81.749 125.616-4.136 139.867"/></g></g><mask id="c" style="mask-type:alpha" maskUnits="userSpaceOnUse" x="34" y="16" width="332" height="268"><path d="M262.373 27.397c67.737 34.735 68.947 32.848 99.413 79.128 7.972 12.111-1.1 54.018 0 69.619 3.103 44.018-20.581 93.905-67.845 104.374-64.017 14.181-75.494-20.735-162.372-5.588C44.691 290.076.622 157.919 65.585 102.812c64.963-55.107 129.051-110.15 196.788-75.415Z" fill="#fff"/></mask><g mask="url(#c)"><path fill-rule="evenodd" clip-rule="evenodd" d="m171.073 121.812 159.755 37.248v112.175l-115.636 64.48-162.623-44.094V182.035l118.504-60.223Z" fill="#01133B"/><path d="M92.152 171.758a1 1 0 1 0 0-2 1 1 0 0 0 0 2ZM113.712 188.038a1 1 0 1 0 0-2 1 1 0 0 0 0 2ZM104.912 192.438a1 1 0 1 0 0-2 1 1 0 0 0 0 2ZM73.892 183.418a1 1 0 1 0 .001-2 1 1 0 0 0 0 2ZM154.412 143.818a1 1 0 1 0 0-2 1 1 0 0 0 0 2ZM189.832 154.158a1 1 0 1 0 0-2 1 1 0 0 0 0 2ZM154.632 214.438a1 1 0 1 0 0-2 1 1 0 0 0 0 2ZM156.612 209.918a1.1 1.1 0 1 0 .001-2.199 1.1 1.1 0 0 0-.001 2.199ZM294.772 165.918a1.1 1.1 0 1 0 0-2.2 1.1 1.1 0 0 0 0 2.2ZM287.292 178.578a1 1 0 1 0 0-2 1 1 0 0 0 0 2ZM281.572 160.979a1 1 0 1 0 0-2 1 1 0 0 0 0 2ZM314.132 162.738a1 1 0 1 0 0-2 1 1 0 0 0 0 2ZM185.652 150.518a1.1 1.1 0 1 0 .001-2.199 1.1 1.1 0 0 0-.001 2.199ZM166.072 139.638a1 1 0 1 0 0-2 1 1 0 0 0 0 2ZM276.072 179.238a1 1 0 1 0 .002-1.998 1 1 0 0 0-.002 1.998ZM291.912 169.118a1 1 0 1 0 0-2 1 1 0 0 0 0 2Z" fill="#fff"/><path fill-rule="evenodd" clip-rule="evenodd" d="M215.08 224.043v112.599L52.569 294.6V182.001l56.009 14.49v17.849l50.917 13.173v-17.85l55.585 14.38Z" fill="#678AFF"/><path fill-rule="evenodd" clip-rule="evenodd" d="M330.365 159.314v112.678l-115.748 65.112V224.426l115.748-65.112Zm-32.121 36.03-42.083 23.508v19.796l42.083-23.508v-19.796Z" fill="#436FFF"/><path fill-rule="evenodd" clip-rule="evenodd" d="m325.873 156.332-50.904 7.827-22.135 47.529-66.301-24.02 19.23-42.976-45.267-2.146c-7.876-.374-13.958-7.061-13.584-14.937.056-1.191.261-2.369.611-3.509a26.737 26.737 0 0 1 23.727-18.836l43.893-3.02a43.998 43.998 0 0 1 15.996 1.854l20.812 6.424 26.284 4.827-15.518-16.24 8.27-27.382 15.646-10.77 52.839 55.509c9.048 9.505 8.677 24.544-.828 33.592a23.754 23.754 0 0 1-12.771 6.274Z" fill="#fff" stroke="#01133B" stroke-width="1.258" stroke-linecap="round" stroke-linejoin="round"/><path fill-rule="evenodd" clip-rule="evenodd" d="m297.31 71.843-30.746-31.34a5.393 5.393 0 0 0-7.596-.102 5.35 5.35 0 0 0-.132 7.566l15.389 15.937" fill="#fff"/><path d="m297.31 71.843-30.746-31.34a5.393 5.393 0 0 0-7.596-.102 5.35 5.35 0 0 0-.132 7.566l15.389 15.937" stroke="#01133B" stroke-width="1.32" stroke-linecap="round" stroke-linejoin="round"/><path fill-rule="evenodd" clip-rule="evenodd" d="m256 85.939-7.65-2.212a5.298 5.298 0 0 0-6.561 3.619l-.006.022a5.344 5.344 0 0 0 3.656 6.596l19.692 5.693" fill="#fff"/><path d="m256 85.939-7.65-2.212a5.298 5.298 0 0 0-6.561 3.619l-.006.022a5.344 5.344 0 0 0 3.656 6.596l19.692 5.693" stroke="#01133B" stroke-width="1.32" stroke-linecap="round" stroke-linejoin="round"/><path fill-rule="evenodd" clip-rule="evenodd" d="M274.236 63.847 258.837 47.9a5.35 5.35 0 1 0-7.698 7.434l15.4 15.946" fill="#fff"/><path d="M274.236 63.847 258.837 47.9a5.35 5.35 0 1 0-7.698 7.434l15.4 15.946" stroke="#01133B" stroke-width="1.32" stroke-linecap="round" stroke-linejoin="round"/><path fill-rule="evenodd" clip-rule="evenodd" d="m267.026 71.06-15.4-15.948a5.35 5.35 0 1 0-7.697 7.434l15.399 15.947" fill="#fff"/><path d="m267.026 71.06-15.4-15.948a5.35 5.35 0 1 0-7.697 7.434l15.399 15.947" stroke="#01133B" stroke-width="1.32" stroke-linecap="round" stroke-linejoin="round"/><path fill-rule="evenodd" clip-rule="evenodd" d="M259.213 78.842 243.82 62.903a5.452 5.452 0 0 0-7.709-.135 5.51 5.51 0 0 0-.177 7.75l32.49 34.369" fill="#fff"/><path d="M259.213 78.842 243.82 62.903a5.452 5.452 0 0 0-7.709-.135 5.51 5.51 0 0 0-.177 7.75l32.49 34.369" stroke="#01133B" stroke-width="1.32" stroke-linecap="round" stroke-linejoin="round"/><path fill-rule="evenodd" clip-rule="evenodd" d="m265.829 112.885-42.995 107.48 34.171 8.399 17.308-61.581 60.778-9.592c13.441-2.121 22.619-14.737 20.497-28.179a24.632 24.632 0 0 0-6.5-13.157l-50.843-53.356-35.872 38.413 15.334 13.852-11.878-2.279Z" fill="#EDEEF2" stroke="#01133B" stroke-width="1.32" stroke-linejoin="round"/><path d="m275.557 114.831 32.693 4.115" stroke="#01133B" stroke-width="1.32" stroke-linecap="round"/><path fill-rule="evenodd" clip-rule="evenodd" d="m238.706 105.55-44.5 90.906-20.254-4.265 35.683-73.244-13.205-2.725-18.764 40.496-26.253-11.613c-11.779-5.211-17.103-18.983-11.893-30.761a23.32 23.32 0 0 1 21.608-13.884c37.124.448 56.639.713 58.544.793 3.339.142 9.684 1.574 19.034 4.297Z" fill="#EDEEF2" stroke="#01133B" stroke-width="1.32" stroke-linejoin="round"/><path d="m196.283 154.9 11.4-39.758-24.108-6.913-11.401 39.758 24.109 6.913Z" fill="#fff"/><path fill-rule="evenodd" clip-rule="evenodd" d="m260.83 101.179 37.583-42.198 15.059 10.589-42.485 41.749-10.157-10.14Z" fill="#EDEEF2" stroke="#01133B" stroke-width="1.32" stroke-linejoin="round"/><path fill-rule="evenodd" clip-rule="evenodd" d="m274.83 112.326-2.34-1.857 37.051-37.062v.686l-34.711 38.233Z" fill="#01133B"/><path d="m278.235 115.349-17.904 26.877 6.166 7.097a9.24 9.24 0 0 1-.84 12.969l-30.287 26.896M224.464 101.444l-2.77 25.368-14.833 3.86-6.533 53.892" stroke="#01133B" stroke-width="1.32"/><mask id="d" style="mask-type:alpha" maskUnits="userSpaceOnUse" x="244" y="91" width="22" height="29"><path d="m265.978 96.8-16.951-4.858-4.542 15.829c-1.344 4.684 1.361 9.568 6.042 10.909 4.681 1.341 9.565-1.368 10.909-6.051l4.542-15.83Z" fill="#fff"/></mask><g mask="url(#d)"><path d="m265.978 96.8-16.952-4.858-4.542 15.829c-1.343 4.683 1.362 9.567 6.043 10.909 4.681 1.341 9.565-1.368 10.909-6.051l4.542-15.83Z" fill="#fff" stroke="#01133B" stroke-width="1.258" stroke-linecap="round" stroke-linejoin="round"/><path d="M248.057 101.916c-10.574-3.03-16.868-13.427-14.058-23.223 2.811-9.796 13.661-15.28 24.235-12.25 10.575 3.031 16.869 13.428 14.058 23.224-2.81 9.796-13.661 15.28-24.235 12.249Z" fill="#01133B"/></g><path fill-rule="evenodd" clip-rule="evenodd" d="m172.226 150.592 34.091 9.687a5.365 5.365 0 0 0 6.619-3.672 5.306 5.306 0 0 0-3.623-6.574l-.03-.009-12.784-3.613" fill="#fff"/><path d="m172.226 150.592 34.091 9.687a5.365 5.365 0 0 0 6.619-3.672 5.306 5.306 0 0 0-3.623-6.574l-.03-.009-12.784-3.613" stroke="#01133B" stroke-width="1.32" stroke-linecap="round" stroke-linejoin="round"/><path fill-rule="evenodd" clip-rule="evenodd" d="m201.262 118.217 7.732-1.911a5.3 5.3 0 0 0 3.874-6.414l-.005-.022a5.343 5.343 0 0 0-6.464-3.881l-19.902 4.919" fill="#fff"/><path d="m201.262 118.217 7.732-1.911a5.3 5.3 0 0 0 3.874-6.414l-.005-.022a5.343 5.343 0 0 0-6.464-3.881l-19.902 4.919" stroke="#01133B" stroke-width="1.32" stroke-linecap="round" stroke-linejoin="round"/><path fill-rule="evenodd" clip-rule="evenodd" d="m227.724 114.451.236 6.804-5.976.21a4.265 4.265 0 0 0-4.121 4.402 5.756 5.756 0 0 0 4.742 5.459l.206.034 9.06 1.295-.975 6.739-9.06-1.295c-6.041-.864-10.591-5.915-10.802-11.992-.209-6.019 4.449-11.085 10.452-11.434l.262-.013 5.976-.209Z" fill="#fff" stroke="#01133B" stroke-width="1.32" stroke-linecap="round" stroke-linejoin="round"/><path fill-rule="evenodd" clip-rule="evenodd" d="m227.338 112.301 44.505-1.563.54 15.569c.427 12.285-9.19 22.593-21.48 23.024-12.29.432-22.598-9.176-23.024-21.46l-.541-15.57Z" fill="#fff" stroke="#01133B" stroke-width="1.32" stroke-linecap="round" stroke-linejoin="round"/><path d="m228.06 121.725 43.748-1.515" stroke="#01133B" stroke-width="1.32" stroke-linecap="round" stroke-linejoin="round"/><path fill-rule="evenodd" clip-rule="evenodd" d="m196.516 146.473 12.883 3.604a5.216 5.216 0 0 0 6.425-3.617v-.001a5.219 5.219 0 0 0-3.611-6.432l-12.901-3.627" fill="#fff"/><path d="m196.516 146.473 12.883 3.604a5.216 5.216 0 0 0 6.425-3.617v-.001a5.219 5.219 0 0 0-3.611-6.432l-12.901-3.627" stroke="#01133B" stroke-width="1.32" stroke-linecap="round" stroke-linejoin="round"/><path fill-rule="evenodd" clip-rule="evenodd" d="m199.31 136.404 12.888 3.624a5.21 5.21 0 0 0 6.428-3.623 5.288 5.288 0 0 0-3.618-6.494l-12.939-3.76" fill="#fff"/><path d="m199.31 136.404 12.888 3.624a5.21 5.21 0 0 0 6.428-3.623 5.288 5.288 0 0 0-3.618-6.494l-12.939-3.76" stroke="#01133B" stroke-width="1.32" stroke-linecap="round" stroke-linejoin="round"/><path fill-rule="evenodd" clip-rule="evenodd" d="m202.065 126.154 17.288 4.773a5.51 5.51 0 0 0 6.76-3.793 5.46 5.46 0 0 0-3.735-6.753l-40.17-11.566" fill="#fff"/><path d="m202.065 126.154 17.288 4.773a5.51 5.51 0 0 0 6.76-3.793 5.46 5.46 0 0 0-3.735-6.753l-40.17-11.566" stroke="#01133B" stroke-width="1.32" stroke-linecap="round" stroke-linejoin="round"/><path fill-rule="evenodd" clip-rule="evenodd" d="m189.393 106.582-11.217-3.104-13.008 50.113 10.73 4.798 13.495-51.807Z" fill="#EDEEF2" stroke="#01133B" stroke-width="1.32" stroke-linejoin="round"/><path fill-rule="evenodd" clip-rule="evenodd" d="M267.625 58.014c-8.315-2.383-16.99 2.429-19.377 10.748-.055.193-.107.387-.155.582l-1.499 6.098c-2.072 8.433 2.887 16.993 11.231 19.384 8.252 2.365 16.862-2.41 19.231-10.667l1.724-6.009c2.48-8.645-2.514-17.66-11.155-20.136Z" fill="#01133B"/><path fill-rule="evenodd" clip-rule="evenodd" d="m249.033 72.272-2.832 9.873c-2.151 7.497 2.18 15.315 9.673 17.463 7.494 2.147 15.312-2.19 17.463-9.687l2.832-9.872c2.151-7.497-2.18-15.315-9.673-17.463-7.494-2.147-15.312 2.19-17.463 9.686Z" fill="#fff" stroke="#01133B" stroke-width="1.284" stroke-linecap="round" stroke-linejoin="round"/><path d="M258.126 92.338a4.8 4.8 0 0 0 5.935-3.292" stroke="#01133B" stroke-width="1.284" stroke-linecap="round" stroke-linejoin="round"/><path fill-rule="evenodd" clip-rule="evenodd" d="M275.92 64.475c4.343-.994 6.82 1.09 7.432 6.254.484 4.09-1.073 9.312-8.323 18.7-.301.39.231-4.223.001-4.774-1.745-4.179-2.618-8.558-2.618-13.137 0-5.184 1.17-7.531 3.508-7.043Z" fill="#01133B"/><path fill-rule="evenodd" clip-rule="evenodd" d="m275.221 83.418 1.88.239a3.875 3.875 0 0 1 3.103 5.298 7.359 7.359 0 0 1-6.914 4.6l-.974-.011 2.905-10.126Z" fill="#fff" stroke="#01133B" stroke-width="1.284" stroke-linecap="round" stroke-linejoin="round"/><path d="m276.461 87.069-.904 3.153M275.893 89.05l1.815-.766M258.893 82.665l-1.557 3.32 1.815.874" stroke="#01133B" stroke-width="1.284" stroke-linecap="round" stroke-linejoin="round"/><path d="M268.502 84.294c-1.476-.423-2.476-1.454-2.232-2.302.243-.848 1.637-1.193 3.113-.77 1.476.423 2.476 1.454 2.232 2.302-.243.848-1.637 1.193-3.113.77Z" stroke="#01133B" stroke-width=".856" stroke-linecap="round" stroke-linejoin="round"/><path d="M268.502 84.294c-.886-.254-1.406-1.147-1.163-1.996.243-.848 1.159-1.33 2.044-1.076.886.254 1.407 1.147 1.163 1.996-.243.848-1.158 1.33-2.044 1.076Z" fill="#01133B"/><path d="M253.696 80.048c-1.476-.423-2.475-1.453-2.232-2.302.243-.848 1.637-1.193 3.114-.77 1.476.423 2.475 1.454 2.232 2.302-.244.848-1.638 1.193-3.114.77Z" stroke="#01133B" stroke-width=".856" stroke-linecap="round" stroke-linejoin="round"/><path d="M253.696 80.048c-.885-.254-1.406-1.147-1.163-1.995.244-.848 1.159-1.33 2.045-1.076.885.253 1.406 1.147 1.162 1.995-.243.848-1.158 1.33-2.044 1.076Z" fill="#01133B"/><path fill-rule="evenodd" clip-rule="evenodd" d="M271.445 63.124c-9.816-5.495-17.887-7.31-24.212-5.446-9.487 2.797-6.421 18.864 12.577 19.344 12.664.32 16.543-4.313 11.635-13.898Z" fill="#01133B"/><path fill-rule="evenodd" clip-rule="evenodd" d="M278.471 67.673c.127-4.384-10.078-14.623-17.059-14.367-4.653.172-4.803 5.35-.45 15.536 11.588 2.143 17.425 1.753 17.509-1.17Z" fill="#01133B"/><path d="m177.666 104.652-4.371-1.156" stroke="#01133B" stroke-width="1.32" stroke-linecap="round"/><path fill-rule="evenodd" clip-rule="evenodd" d="m189.394 110.468-9.88 42.25-1.849-.783 10.62-41.466 1.109-.001Z" fill="#01133B"/><path fill-rule="evenodd" clip-rule="evenodd" d="m97.215 250.294-14.522 33.527 25.21 3.91 11.905-26.428-22.593-11.009Z" fill="#fff"/><path d="m84.285 280.573 13.523-30.28 21.208 12.713-9.109 19.589" stroke="#01133B" stroke-width="1.436" stroke-linecap="round" stroke-linejoin="round"/><mask id="e" style="mask-type:alpha" maskUnits="userSpaceOnUse" x="28" y="277" width="88" height="35"><path d="m70.357 283.991 9.014-6.282c1.5 2.766 4.363 4.466 8.588 5.101 10.39 1.56 18.609 1.023 24.655-1.612l2.755 15.825a35.15 35.15 0 0 1 .327 9.705l-.443 4.208a.67.67 0 0 1-.737.598l-84.506-8.87a2.013 2.013 0 0 1-1.599-2.885l1.481-3.041a11.428 11.428 0 0 1 8.954-6.348l21.102-2.455a22.816 22.816 0 0 0 10.409-3.944Z" fill="#fff"/></mask><g mask="url(#e)" stroke="#01133B"><path clip-rule="evenodd" d="M79.653 276.637c1.276 3.036 4.114 4.816 8.413 5.462 10.706 1.608 19.075.981 25.095-1.944l2.915 16.744c.569 3.27.681 6.603.334 9.904l-.443 4.208c-.04.382-.231.711-.508.935a1.382 1.382 0 0 1-1.019.302l-84.505-8.869a2.719 2.719 0 0 1-1.837-.997 2.724 2.724 0 0 1-.332-2.916l1.481-3.041a12.146 12.146 0 0 1 9.517-6.748l21.101-2.455a22.088 22.088 0 0 0 10.082-3.821l9.706-6.764Z" stroke-width="1.436"/><path d="m89.335 276.025 1.615 16.334 14.132 12.464" stroke-width="6.71" stroke-linejoin="round"/></g><path d="m63.982 284.612 3.3 6.241M70.263 281.343l3.436 4.945" stroke="#01133B" stroke-width="1.436" stroke-linecap="round" stroke-linejoin="round"/><path fill-rule="evenodd" clip-rule="evenodd" d="m95.925 255.6 21.324 11.17 1.071-2.522-21.75-10.166-.645 1.518Z" fill="#01133B"/><path fill-rule="evenodd" clip-rule="evenodd" d="M154.811 151.679c-.139-.064-.28-.126-.421-.186-8.85-3.756-19.073.377-22.832 9.231l-.086.207-37.84 92.414c26.431 11.706 41.894 18.506 46.387 20.398 8.15-13.318 6.289-25.535 8.414-36.626 2.124-11.092 13.873-20.807 15.796-46.564.633-8.485 4.364-17.433 11.192-26.842-10.831-6.694-17.701-10.705-20.61-12.032Z" fill="#fff" stroke="#01133B" stroke-width="1.258" stroke-linecap="round" stroke-linejoin="round"/><path fill-rule="evenodd" clip-rule="evenodd" d="M265.633 217.357c3.288-10.397-2.146-21.548-12.361-25.369l-89.828-33.6c-6.523 26.107-11.374 44.189-14.553 54.246 13.658 7.582 27.159 3.258 44.433 7.01 17.274 3.753 24.27 9.266 38.464 13.159 1.695.465 3.386.88 5.072 1.245 12.464 2.696 24.929-4.536 28.773-16.691Z" fill="#fff" stroke="#01133B" stroke-width="1.258" stroke-linecap="round" stroke-linejoin="round"/><path d="m129.151 170.552 27.757 13.281 5.968-24.434-16.039-7.499" stroke="#01133B" stroke-width="1.436" stroke-linecap="round" stroke-linejoin="round"/><mask id="f" style="mask-type:alpha" maskUnits="userSpaceOnUse" x="73" y="127" width="77" height="69"><path d="m116.508 177.33 10.899-1.365c-.735-3.06.255-6.239 2.97-9.538 6.677-8.114 13.143-13.215 19.397-15.303l-8.537-13.602a35.11 35.11 0 0 0-6.248-7.431l-3.143-2.831a.672.672 0 0 0-.948.05L74.04 190.458a2.013 2.013 0 0 0 .741 3.213l3.135 1.268a11.423 11.423 0 0 0 10.899-1.275l17.321-12.299a22.804 22.804 0 0 1 10.372-4.035Z" fill="#fff"/></mask><g mask="url(#f)"><path clip-rule="evenodd" d="M128.255 176.523c-1.051-3.106-.127-6.324 2.632-9.677 6.863-8.339 13.486-13.473 19.901-15.349l-8.992-14.326a35.789 35.789 0 0 0-6.365-7.571l-3.144-2.83a1.325 1.325 0 0 0-.96-.34c-.34.017-.673.165-.919.438L73.55 190.016a2.662 2.662 0 0 0-.683 1.928 2.666 2.666 0 0 0 1.667 2.338l3.135 1.269a12.083 12.083 0 0 0 11.528-1.349l17.321-12.299a22.154 22.154 0 0 1 10.072-3.919l11.665-1.461Z" stroke="#01133B" stroke-width="1.32"/><path d="m135.942 170.554-9.727-13.221 2.164-18.722" stroke="#01133B" stroke-width="6.71" stroke-linejoin="round"/><path fill-rule="evenodd" clip-rule="evenodd" d="m75.516 196.962 62.201-69.081-4.049-3.645-62.2 69.081 4.048 3.645Z" fill="#01133B"/><path fill-rule="evenodd" clip-rule="evenodd" d="m118.347 140.573 6.245 2.996a16.104 16.104 0 0 0 15.885-1.112l7.722-5.137-6.24-18.222-16.643-2.451-9.081 15.922 2.112 8.004Z" fill="#fff" stroke="#01133B" stroke-width="1.32" stroke-linecap="round" stroke-linejoin="round"/></g><path d="m105.953 184.216-3.478-4.897M111.356 181.135l-1.722-6.847M118.211 179.362l-.754-5.976" stroke="#01133B" stroke-width="1.32" stroke-linecap="round" stroke-linejoin="round"/><path d="m113.914 142.695-41.11 46.231a1.1 1.1 0 0 0 .056 1.52c2.462 2.39 4.913 3.863 7.352 4.42" stroke="#fff" stroke-width="1.32" stroke-linecap="round" stroke-linejoin="round"/><path fill-rule="evenodd" clip-rule="evenodd" d="m155.648 183.228 5.494-24.84 1.734 1.01-5.969 24.435-1.259-.605Z" fill="#01133B"/></g></svg>